<svg xmlns="http://www.w3.org/2000/svg" viewBox="0 0 24 24" fill="none" role="img" aria-label="Этюд «Водопад Виктория» — язык Lucide с моим знаком: вода, радуга, солнце">
  <path d="M4 21V8Q8 5 12 8Q16 11 20 8V21Z" stroke="#8ab8cc" stroke-width="1.4" stroke-linecap="round" stroke-linejoin="round" fill="none"/>
  <path d="M6 21v-9M10 21V10M14 21v-9M18 21v-7" stroke="#5a94ae" stroke-width="0.9" stroke-linecap="round" opacity="0.7"/>
  <path d="M6.5 9Q8 6 9.5 9M10.5 7Q12 4.5 13.5 7M14.5 8.5Q16 6.5 17.5 8.5" stroke="#c0dce8" stroke-width="0.9" stroke-linecap="round" opacity="0.6"/>
  <path d="M4 11q2 -2 4 0q2 2 4 0q2 -2 4 0q2 2 4 0" stroke="#8058c0" stroke-width="1" stroke-linecap="round" fill="none" opacity="0.7"/>
  <path d="M3 13.5q2.5 -1.5 5 0q2.5 1.5 5 0q2.5 -1.5 5 0" stroke="#e85050" stroke-width="0.8" stroke-linecap="round" fill="none" opacity="0.5"/>
  <path d="M4 21h16" stroke="#4a8ab0" stroke-width="1.2" stroke-linecap="round"/>
  <circle cx="20" cy="4" r="1.5" fill="#ffe0b0"/>
  <path d="M20 4v2" stroke="#ffe0b0" stroke-width="0.9" stroke-linecap="round" opacity="0.7"/>
</svg>