<svg xmlns="http://www.w3.org/2000/svg" viewBox="0 0 24 24" fill="none" role="img" aria-label="Этюд «Байкал» — язык Lucide с моим знаком: синий лёд, пузырьки, горы">
  <path d="M2 21h20" stroke="#3890b8" stroke-width="1.3" stroke-linecap="round"/>
  <path d="M2 18.5h20" stroke="#3890b8" stroke-width="1.3" stroke-linecap="round" opacity="0.8"/>
  <path d="M4 16h16" stroke="#3890b8" stroke-width="1" stroke-linecap="round" opacity="0.5"/>
  <rect x="2" y="10" width="20" height="8" fill="#5aacd0" opacity="0.7"/>
  <path d="M6 10h3v5H6Z" fill="#8ac8e8" opacity="0.5"/>
  <path d="M15 10h3v5h-3Z" fill="#8ac8e8" opacity="0.5"/>
  <path d="M3 13q4 -2 8 0q4 2 8 0" stroke="#1c6c90" stroke-width="0.9" stroke-linecap="round" fill="none" opacity="0.6"/>
  <circle cx="7.5" cy="14" r="0.8" fill="#b8e0f4"/>
  <circle cx="12" cy="15.5" r="1" fill="#b8e0f4"/>
  <circle cx="16.5" cy="14" r="0.8" fill="#b8e0f4"/>
  <circle cx="10" cy="16.8" r="0.7" fill="#b8e0f4"/>
  <circle cx="14" cy="17.2" r="0.6" fill="#b8e0f4" opacity="0.8"/>
  <path d="M4 8l3 -2v2Z" fill="#4a5070"/>
  <path d="M20 8l-3 -2v2Z" fill="#4a5070"/>
  <circle cx="18" cy="3.5" r="1.3" fill="#ffdcb0"/>
</svg>