<svg xmlns="http://www.w3.org/2000/svg" viewBox="0 0 24 24" fill="none" role="img" aria-label="Этюд «Тропа гигантов» — язык Lucide с моим знаком: шестигранные колонны у моря">
  <path d="M4 21V9l3 -1 3 1v12" stroke="#3c3040" stroke-width="1.4" stroke-linejoin="round" fill="none"/>
  <path d="M7 8l-2 1M10 9l-1 -1" stroke="#5a4438" stroke-width="1" stroke-linecap="round" opacity="0.6"/>
  <path d="M13 21v-8l3 -1 3 1v8" stroke="#3c3040" stroke-width="1.4" stroke-linejoin="round" fill="none"/>
  <path d="M16 12l-2 1M19 13l-1 -1" stroke="#5a4438" stroke-width="1" stroke-linecap="round" opacity="0.6"/>
  <path d="M4 21h18" stroke="#5a6a7a" stroke-width="1.2" stroke-linecap="round"/>
  <path d="M4 18l18 -2" stroke="#5a6a7a" stroke-width="1" stroke-linecap="round" opacity="0.5"/>
  <path d="M4 15l4 -6M8 9l4 3" stroke="#3c3040" stroke-width="1" stroke-linecap="round" opacity="0.7"/>
  <circle cx="18.5" cy="3.5" r="1.5" fill="#ffe0a8"/>
  <path d="M18.5 5v2" stroke="#ffe0a8" stroke-width="0.9" stroke-linecap="round" opacity="0.7"/>
  <path d="M2 20h2M20 20h2" stroke="#5a8aa0" stroke-width="1" stroke-linecap="round" opacity="0.6"/>
  <path d="M2.5 16.5q2 -1 4 0q2 1 4 0" stroke="#8aa8bc" stroke-width="0.9" stroke-linecap="round" fill="none" opacity="0.5"/>
</svg>