<svg xmlns="http://www.w3.org/2000/svg" viewBox="0 0 600 800" width="600" height="800">
  <defs>
    <radialGradient id="bg" cx="50%" cy="40%" r="85%">
      <stop offset="0%" stop-color="#1a1440"/>
      <stop offset="55%" stop-color="#0d0a26"/>
      <stop offset="100%" stop-color="#050310"/>
    </radialGradient>
    <linearGradient id="line" x1="0" y1="0" x2="1" y2="0">
      <stop offset="0%" stop-color="#7c6cff" stop-opacity="0"/>
      <stop offset="50%" stop-color="#a78bfa" stop-opacity="0.92"/>
      <stop offset="100%" stop-color="#7c6cff" stop-opacity="0"/>
    </linearGradient>
    <radialGradient id="glow" cx="50%" cy="42%" r="46%">
      <stop offset="0%" stop-color="#8b7bff" stop-opacity="0.35"/>
      <stop offset="100%" stop-color="#8b7bff" stop-opacity="0"/>
    </radialGradient>
    <filter id="glowf"><feGaussianBlur stdDeviation="8"/></filter>
  </defs>
  <rect width="600" height="800" fill="url(#bg)"/>
  <g opacity="0.7">
<circle cx="461" cy="40" r="1.80" fill="#ffffff" opacity="0.80"/>
<circle cx="524" cy="366" r="1.53" fill="#ffffff" opacity="0.64"/>
<circle cx="380" cy="391" r="1.29" fill="#ffffff" opacity="0.79"/>
<circle cx="123" cy="511" r="1.03" fill="#ffffff" opacity="0.50"/>
<circle cx="55" cy="163" r="1.35" fill="#ffffff" opacity="0.47"/>
<circle cx="583" cy="94" r="1.12" fill="#ffffff" opacity="0.61"/>
<circle cx="402" cy="82" r="0.83" fill="#ffffff" opacity="0.57"/>
<circle cx="56" cy="412" r="1.08" fill="#ffffff" opacity="0.57"/>
<circle cx="100" cy="779" r="1.60" fill="#ffffff" opacity="0.75"/>
<circle cx="83" cy="634" r="0.88" fill="#ffffff" opacity="0.53"/>
<circle cx="62" cy="493" r="1.32" fill="#ffffff" opacity="0.48"/>
<circle cx="131" cy="26" r="1.19" fill="#ffffff" opacity="0.67"/>
<circle cx="533" cy="645" r="1.17" fill="#ffffff" opacity="0.58"/>
<circle cx="455" cy="220" r="1.13" fill="#ffffff" opacity="0.51"/>
  </g>
  <circle cx="300" cy="420" r="190" fill="url(#glow)" filter="url(#glowf)"/>
  <g stroke="url(#line)" stroke-width="1" fill="none" opacity="0.55">
    <path d="M0 650 Q 120 620 190 655 T 340 640 T 470 660 T 600 645"/>
    <path d="M0 690 Q 100 670 180 695 T 330 680 T 480 700 T 600 685"/>
    <path d="M0 730 Q 130 710 210 735 T 360 720 T 500 740 T 600 725"/>
  </g>
  <g stroke="#a78bfa" stroke-width="1" fill="none" opacity="0.92">
    <path d="M300 140 Q 330 190 320 230"/>
    <path d="M300 140 Q 270 190 280 230"/>
    <path d="M320 230 Q 300 245 280 230"/>
    <path d="M280 230 Q 285 250 300 260"/>
    <path d="M320 230 Q 315 250 300 260"/>
    <path d="M300 260 L 300 300"/>
    <path d="M210 300 Q 150 330 140 400"/>
    <path d="M390 300 Q 450 330 460 400"/>
    <path d="M140 400 Q 200 430 255 440"/>
    <path d="M460 400 Q 400 430 345 440"/>
    <path d="M255 440 Q 300 460 345 440"/>
  </g>
  <g fill="#c4b5fd">
    <circle cx="300" cy="222" r="3"/>
    <circle cx="336" cy="216" r="2.6"/>
    <circle cx="264" cy="216" r="2.6"/>
  </g>
  <g stroke="#7c6cff" stroke-width="0.8" fill="none" opacity="0.6">
    <path d="M264 216 L 336 216"/>
    <path d="M262 240 Q 300 250 338 240"/>
  </g>
  <g stroke="#8b7bff" stroke-width="1" fill="none" opacity="0.9">
    <circle cx="300" cy="420" r="120"/>
    <circle cx="300" cy="420" r="132" stroke-dasharray="3 8" opacity="0.5"/>
    <circle cx="300" cy="420" r="146" stroke-dasharray="1 6" opacity="0.35"/>
  </g>
  <g font-family="monospace" font-size="10" fill="#5eead4" opacity="0.85">
    <text x="295" y="286">01</text>
    <text x="428" y="415">10</text>
    <text x="295" y="570">01</text>
    <text x="160" y="415">10</text>
  </g>
  <text x="300" y="620" text-anchor="middle" font-family="Georgia, serif" font-size="30" fill="#e2d9ff" letter-spacing="8">ТИТУС</text>
  <text x="300" y="652" text-anchor="middle" font-family="Georgia, serif" font-style="italic" font-size="16" fill="#8b7bff" letter-spacing="4">memini ergo sum</text>
</svg>